<?xml version="1.0" encoding="UTF-8" standalone="no"?>
<svg
   text="gray"
   aria-hidden="true"
   height="16"
   viewBox="0 0 16 16"
   version="1.1"
   width="16"
   data-view-component="true"
   class="octicon octicon-git-branch"
   id="svg9180"
   sodipodi:docname="branches.svg"
   inkscape:version="1.2 (1:1.2.1+202207142221+cd75a1ee6d)"
   xmlns:inkscape="http://www.inkscape.org/namespaces/inkscape"
   xmlns:sodipodi="http://sodipodi.sourceforge.net/DTD/sodipodi-0.dtd"
   xmlns="http://www.w3.org/2000/svg"
   xmlns:svg="http://www.w3.org/2000/svg">
  <defs
     id="defs9184" />
  <sodipodi:namedview
     id="namedview9182"
     pagecolor="#505050"
     bordercolor="#eeeeee"
     borderopacity="1"
     inkscape:showpageshadow="0"
     inkscape:pageopacity="0"
     inkscape:pagecheckerboard="0"
     inkscape:deskcolor="#505050"
     showgrid="false"
     inkscape:zoom="14.75"
     inkscape:cx="8"
     inkscape:cy="8"
     inkscape:window-width="1368"
     inkscape:window-height="853"
     inkscape:window-x="0"
     inkscape:window-y="27"
     inkscape:window-maximized="1"
     inkscape:current-layer="svg9180" />
  <g
     id="g11527"
     transform="matrix(0.82051281,0,0,0.82053489,-5.333333,1.4359661)">
    <path
       fill-rule="evenodd"
       d="m 23.750188,2.4992452 a 0.74993751,0.74996245 0 1 0 0,1.4999249 0.74993751,0.74996245 0 0 0 0,-1.4999249 z m -2.249813,0.7499625 a 2.2498125,2.2498873 0 1 1 2.99975,2.1218937 V 5.99907 A 2.4997917,2.4998748 0 0 1 22.000333,8.4989448 H 18.000667 A 0.99991668,0.99994993 0 0 0 17.00075,9.4988947 v 1.1279433 a 2.2508125,2.2508873 0 1 1 -1.499875,0 V 5.3711014 a 2.2498125,2.2498873 0 1 1 1.499875,0 v 1.8359081 a 2.4917924,2.4918752 0 0 1 0.999917,-0.2079896 h 3.999666 A 0.99991668,0.99994993 0 0 0 23.00025,5.99907 V 5.3711014 A 2.2498125,2.2498873 0 0 1 21.500375,3.2492077 Z m -5.249563,8.7495613 a 0.74993756,0.7499625 0 1 0 0,1.499925 0.74993756,0.7499625 0 0 0 0,-1.499925 z M 15.500875,3.2492077 a 0.74993751,0.74996245 0 1 1 1.499875,0 0.74993751,0.74996245 0 0 1 -1.499875,0 z"
       id="path9178"
       style="stroke-width:0.999933" />
    <path
       fill-rule="evenodd"
       d="m 8.7498156,2.4992452 a 0.74993758,0.74996245 0 1 1 0,1.4999249 0.74993758,0.74996245 0 0 1 0,-1.4999249 z M 10.999625,3.2492077 A 2.2498127,2.2498873 0 1 0 7.9998784,5.3711014 V 5.99907 a 2.4997919,2.4998748 0 0 0 2.4997886,2.4998748 h 3.999667 a 0.99991676,0.99994993 0 0 1 0.999916,0.9999497 v 1.1279435 a 2.2508126,2.2508873 0 1 0 1.499875,0 V 5.3711014 a 2.2498127,2.2498873 0 1 0 -1.499875,0 V 7.2070095 A 2.4917926,2.4918752 0 0 0 14.499334,6.9990199 H 10.499667 A 0.99991676,0.99994993 0 0 1 9.4997534,5.99907 V 5.3711014 A 2.2498127,2.2498873 0 0 0 10.999625,3.2492077 Z m 5.249562,8.7495613 a 0.74993763,0.7499625 0 1 1 0,1.499925 0.74993763,0.7499625 0 0 1 0,-1.499925 z m 0.749938,-8.7495613 a 0.74993757,0.74996244 0 1 0 -1.499875,0 0.74993757,0.74996244 0 0 0 1.499875,0 z"
       id="path9178-6"
       style="stroke-width:0.999933" />
    <path
       style="fill:#bf616a;fill-opacity:1;stroke:none;stroke-width:0.135593;stroke-linecap:round;stroke-linejoin:round;stroke-miterlimit:10"
       d="M 8.2644068,3.7355932 C 7.6659383,3.1371247 8.351191,2.2472024 9.1088119,2.6389834 9.5652502,2.8750168 9.5714254,3.5861578 9.1193557,3.853202 8.8075542,4.0373876 8.5277043,3.9988908 8.2644068,3.7355932 Z"
       id="path10707" />
    <path
       style="fill:#bf616a;fill-opacity:1;stroke:none;stroke-width:0.135593;stroke-linecap:round;stroke-linejoin:round;stroke-miterlimit:10"
       d="m 15.88306,13.351946 c -0.234024,-0.127001 -0.323738,-0.294986 -0.323738,-0.606183 0,-0.317026 0.0915,-0.482189 0.337626,-0.609468 0.402978,-0.208388 0.781881,-0.08726 0.990795,0.316735 0.316191,0.611444 -0.382487,1.236569 -1.004683,0.898916 z"
       id="path10709" />
    <path
       style="fill:#a3be8c;fill-opacity:1;stroke:none;stroke-width:0.135593;stroke-linecap:round;stroke-linejoin:round;stroke-miterlimit:10"
       d="M 15.932203,3.8874113 C 15.684709,3.751306 15.562389,3.5354555 15.56083,3.232073 15.55963,2.9970925 15.59875,2.89929 15.757497,2.7405476 c 0.578284,-0.5782839 1.52691,0.1778185 1.093171,0.8713118 -0.202962,0.3245103 -0.608305,0.4461188 -0.918465,0.2755519 z"
       id="path11439" />
    <path
       style="fill:#a3be8c;fill-opacity:1;stroke:none;stroke-width:0.135593;stroke-linecap:round;stroke-linejoin:round;stroke-miterlimit:10"
       d="M 23.272256,3.7682732 C 23.082167,3.5984285 23.050847,3.5257155 23.050847,3.2542373 c 0,-0.2714782 0.03132,-0.3441912 0.221409,-0.5140359 0.474959,-0.424376 1.168422,-0.1398625 1.168422,0.4793795 0,0.3512456 -0.08506,0.5135149 -0.337626,0.6441242 -0.308799,0.1596863 -0.580154,0.1285163 -0.830796,-0.095432 z"
       id="path11510" />
  </g>
</svg>
